<svg version="1.1" id="Calque_1" xmlns="http://www.w3.org/2000/svg" xmlns:xlink="http://www.w3.org/1999/xlink" x="0px" y="0px" viewBox="0 0 401 138" enable-background="new 0 0 401 138" xml:space="preserve">
	<path fill="#003399" d="M0.8,114.2c1.2-1.2,2.8-1.6,4.4-1.8c2.1-0.2,4-0.3,5.9-1.1c1.9-0.7,3.9-1.2,5.8-1.7c1-0.2,2-0.4,3-0.7
		c0.5-0.1,1.5-0.6,2-0.5c0.4,0.1,0.4,0.4,0.8,0.5c0.3,0.1,0.9-0.2,1.2-0.2c1.1-0.2,2.1-0.4,3.2-0.6c2-0.3,4-0.5,6.1-0.8
		c1.1-0.1,2.1-0.3,3.2-0.4c0.8-0.1,1.8-0.1,2.5-0.6c1.4-1.1,2.6-2.3,4-3.3c3.1-2,6.5-3.4,10.1-4c2-0.3,4.1-0.7,6.1-1
		c0.7-0.1,1.8-0.4,2.1,0.4c0.2,0.7-0.3,1.1-0.9,1.2c-2.1,0.5-4.3,0.2-6.4,0.5c-1.9,0.3-3.8,1-5.6,1.7c-1.5,0.7-3.3,1.3-4.6,2.4
		c-0.4,0.4-1.5,1.2-0.6,1.5c0.3,0.1,0.9-0.2,1.2-0.2c0.6-0.1,1.3-0.2,1.9-0.3c8.5-1.1,16.9-2.4,25.4-3.4c8.8-1,17.6-1.9,26.4-2.7
		c17.3-1.5,34.7-2.5,52.1-3.3c17.2-0.7,34.4-1.5,51.6-1.8c17.6-0.3,35.4-0.3,53,0.7c8.7,0.5,17.4,0.6,26.1,1.1
		c8.8,0.5,17.7,0.9,26.5,1.5c17.6,1.2,35.1,2.6,52.7,3.8c4.5,0.3,8.9,0.6,13.4,1.1c2.2,0.2,4.4,0.5,6.5,0.7c0.4,0,1.8,0,2.1,0.4
		c0.4,0.8-0.8,0.8-1.3,0.8c-2,0.2-4.2-0.5-6.2-0.7c-2.2-0.3-4.3-0.5-6.5-0.7c-4.4-0.4-8.8-0.9-13.2-1.2c-8.9-0.7-17.8-1.3-26.7-1.9
		c-8.7-0.6-17.3-1.3-26-1.7c-8.7-0.5-17.3-1-26-1.5c-2.3-0.1-4.5-0.2-6.8-0.3c-2-0.1-4-0.3-6,0.1c-0.8,0.1-1.7,0.6-2.6,0.6
		c-0.8-0.1-1.3-0.7-2.1-0.9c-0.9-0.2-1.9,0.1-2.8,0.2c-1.1,0.1-2.1,0.3-3.2,0.5c-4.1,0.8-8,2.1-12,3.5c-3.9,1.4-7.8,2.9-11.4,4.9
		c-3.3,1.8-6.7,4.2-8.9,7.4c-1,1.5-2.8,6.5,0.1,7c1.6,0.3,3.5-0.2,5.1-0.3c2.1-0.1,4.3-0.2,6.4-0.2c1.1,0,2.1,0.1,3.2,0.1
		c0.5,0,2,0.2,1,0.9c-0.5,0.4-1.8,0.2-2.5,0.3c-1.1,0-2.3,0-3.4,0c-2.2,0-4.4,0-6.6,0.2c-0.7,0.1-3.5-0.2-3.3,1.1
		c0.1,0.6,0.8,1.2,1.1,1.7c0.6,0.8,1.3,1.5,2.1,2.2c1.5,1.3,3.1,2.4,4.8,3.4c3.6,2.1,7.7,3.3,11.6,4.2c4.1,1,8.4,1.8,12.7,2.3
		c4,0.5,8.2,0.7,12.3,0.9c2.1,0.1,4.4,0,6.5-0.2c0.5-0.1,2-0.6,2.2,0c0.3,0.8-1.7,0.7-2.1,0.7c-8.5,0.8-17.2,0.4-25.6-1
		c-8-1.3-16.1-2.7-22.9-7.2c-1.4-0.9-2.8-2-3.9-3.3c-1-1.2-1.5-2.9-2.9-3.7c-1.3-0.7-3-0.3-4.4-0.1c-1,0.1-2.1,0.1-3.1,0.1
		c-0.6,0-2.1-0.2-2.4,0.5c-0.4,1,2.4,3.3,2.9,4.1c0.9,1.3,1.5,3.1,2.8,4.1c0.5,0.4,1,0.7,0.5,1.5c-0.4,0.7-0.9,0.6-1.4,0
		c-0.6-0.7-0.9-1.8-1.3-2.6c-0.5-0.9-1.1-1.8-1.7-2.6c-0.5-0.7-1.1-1.5-1.6-2.2c-0.5-0.7-1-1.8-1.7-2.2c-0.7-0.4-1.9-0.1-2.7-0.1
		c-1,0-2.1,0-3.1,0.1c-1.5,0.2-1.5,1.8-1.8,3.1c-0.4,2.1-0.8,4.2-1.2,6.3c-0.1,0.5-0.2,2.3-0.7,2.5c-0.3,0.1-0.6-0.3-0.9-0.3
		c-0.4-0.1-0.8,0-1.2,0c-2.1,0.2-4.3,0.4-6.4,0.6c-2.2,0.2-4.3,0.4-6.5,0.6c-0.7,0.1-1.4,0.3-1.8-0.4c-0.5-0.6-0.4-2-0.4-2.7
		c-0.2-2.2,0-4.4,0.1-6.6c0-2.1-0.3-4.2-0.4-6.3c0-2-0.3-4.1-0.3-6.1c0-1,0.2-1.9,0.2-2.9c-0.1-0.9,0-1.4,0.7-1.9
		c0.4-0.3,1.1-0.6,1.7-0.5c0.9,0.2,0.6,1.3,0.6,2c0,2.2,0.1,4.4,0.2,6.6c0,4.2,0,8.5,0.3,12.7c0.1,1.2-0.3,4.3,1.2,4.7
		c1.8,0.4,4.1-0.2,5.9-0.4c1.8-0.2,3.9-0.1,5.7-0.8c1.2-0.5,1.6-1.5,1.8-2.7c0.4-2,0.7-4.1,1.1-6.2c0.2-0.9,0-1.7,0.2-2.5
		c0.2-1,0.5-2.1,0.7-3.1c0.5-2,1.3-4.1,0.6-6.1c-0.2-0.5-0.8-1.3,0.1-1.4c0.4,0,0.6,0.4,1,0.3c0.3-0.1,0.5-0.5,0.8-0.4
		c0.6,0.2-0.1,1.4-0.1,1.8c0,0.8,0.4,1.4,0.8,2.1c1,1.7,2.1,3.4,3.1,5c0.5,0.8,0.8,1,1.8,1.1c1.1,0.1,2.3,0,3.4,0
		c1.1,0,2.1-0.1,3.2-0.2c0.7,0,2.4,0.2,3-0.2c0.6-0.4,0.3-1.3,0.3-1.9c0-1,0.1-2,0.5-2.9c0.6-1.6,1.6-3.1,2.8-4.3
		c2.6-2.8,6-5,9.4-6.8c3.3-1.8,7-3.1,10.5-4.6c1.9-0.8,3.8-1.3,5.7-1.7c1.8-0.4,3.8-0.6,5.3-1.7c-14.7-0.8-29.5-0.5-44.2-0.3
		c-14.5,0.1-29.1,0.7-43.6,1.4c-7.5,0.3-15.1,0.9-22.6,1.3c-7.3,0.4-14.6,0.5-21.9,1.1c-7,0.5-14,1.3-21,1.7
		c-7.2,0.5-14.4,1.3-21.6,2.1c-7.4,0.8-14.8,1.9-22.2,3c-1.6,0.2-3.3,0.5-4.9,0.7c-0.9,0.1-1.7,0.3-2.6,0.5c-0.5,0.1-2,0.1-2.1,0.6
		c-0.5,1.8,7.2,3.2,8.4,3.5c1.5,0.5,3,1.2,4.5,1.7c1.7,0.5,3.3,1,4.9,1.8c2.8,1.3,5.2,3.2,7.6,5c2.3,1.7,3.9,4.5,2,7.1
		c-1.8,2.5-5.1,3.5-7.9,4.2c-7,1.6-14,3.1-21.2,2.9c-3.6-0.1-7.3-0.2-10.8-1c-1.6-0.4-3.1-0.9-4.6-1.4c-1.4-0.4-3.5-0.8-4.6-2
		c-0.7-0.7-0.3-2.1,0.7-2.3c0.7-0.2,1.2,0.6,1.8,1c0.6,0.5,1.4,0.8,2.1,1.2c2.9,1.6,5.9,2.1,9.1,2.6c3.6,0.5,7.1,0.7,10.7,0.6
		c3.5,0,7-0.7,10.4-1.3c3.4-0.6,16.3-3.3,11.4-8.9c-0.9-1.1-2.2-1.9-3.2-2.8c-1.4-1.2-2.8-2-4.4-2.8c-3.1-1.5-6.3-2.8-9.7-3.7
		c-3-0.8-6.8-1.3-9.3-3.2c-1.1-0.8-1.6-1.8-3.2-1.8c-1.7,0.1-3.5,0.6-5.2,0.9c-7.2,1.2-14.4,2.5-21.6,4.1
		C9.6,113.4,0.8,115.9,0.8,114.2C2,113,0.8,114.3,0.8,114.2 M200.6,120.1c1.5,0,2.8,0.1,1.8-1.7c-0.5-0.8-1-1.6-1.5-2.5
		c-0.2-0.3-0.9-1.9-1.3-1.9c-0.9-0.1-1.2,3.8-1.3,4.5c-0.1,0.4-0.2,1.1,0.1,1.4C198.6,120.2,200.2,120.2,200.6,120.1
		C201,120.1,200.1,120.3,200.6,120.1"/>
	<path fill="#003399" d="M100.6,28.2c-1.3,0.5-3.3,1.3-3.6,2.9c-0.3,1.7,1.2,2.3,2.5,2.7c3.9,1,8.1,0.9,12,1.5
		c1.5,0.2,4.1,0.1,5.3,1.2c1.3,1.2,0.8,3.1,0.1,4.5c-1.8,3.6-3.3,7.3-5,10.9c-1.8,3.8-3.6,7.6-5.6,11.3c-0.9,1.7-1.7,3.4-3.1,4.8
		c-1.2,1.3-2.7,2.3-4.2,3.3c-7,4.6-14.7,8-22.5,11c-8,3-16.2,5.5-24.5,7.6c-2.1,0.5-4.1,1-6.2,1.5c-1.8,0.4-2.9,1.7-4.3,2.8
		c-3,2.4-6.3,4.4-9.7,6.2c-3.6,1.9-7.4,3.6-11.1,5.1c-2,0.8-3.9,1.6-5.9,2.3c-0.8,0.3-1.7,0.7-2.6,0.9c-1.2,0.3-0.7-0.8-0.2-1.5
		c2.3-3.4,4.1-7.3,6.2-10.8c2.1-3.7,4.3-7.3,6.4-11c4.1-7.3,8.3-14.6,12.6-21.9c1.1-1.8,2.1-3.7,3.1-5.5c0.7-1.2,1.4-3.4,2.9-4
		c0.8-0.3,1.8-0.3,2.7-0.4c1.1-0.1,2.2-0.2,3.3-0.3c2.2-0.2,4.4-0.4,6.6-0.6c8.6-0.9,17.2-2.1,25.7-3.3c8.4-1.2,16.7-2.7,24.9-4.9
		c2-0.5,4-1.1,5.9-1.8c1.4-0.5,3.9-1.2,4.6-2.6c0.5-1,0.5-2.6-0.4-3.3c-0.6-0.5-1.6-0.5-2.3-0.7c-1-0.2-2.1-0.4-3.2-0.5
		c-8.6-1.1-17.3-1.2-25.9-1.7c-3.8-0.2-7.8-0.2-11.1-2.3c-3-1.9-4-5-2.2-8.2c1.7-3,4.9-5,8-6.4c1.8-0.8,3.7-1.5,5.5-2.2
		c1-0.4,1.5-0.6,2.2,0.2c0.4,0.5,0.9,1.7,1.8,1.6c0.7-0.1,1.1-1,1.8-1.3c0.9-0.3,1.4,0.3,2.2,0.3c0.8-0.1,0.6-0.9,0.6-1.5
		c0-0.5,0.1-0.9,0.1-1.4c0-0.8,0.1-0.7,0.9-1c3.9-1.2,7.9-2.1,11.8-2.9c4.1-0.8,8.4-1.5,12.5-1.6c0.9,0,1.8,0,2.7-0.1
		c1-0.1,1.8-0.6,2.7-1c1.8-0.9,3.7-1.8,5.6-2.6c1.9-0.8,3.8-1.3,5.7-2.1c0.4-0.2,1.4-0.8,1.8-0.4c0.4,0.5-0.6,1.8-0.8,2.2
		c-2.1,3.7-3.9,7.6-5.8,11.4c-0.9,1.9-1.9,3.8-2.8,5.7c-0.4,0.9-0.9,1.7-1.3,2.6c-0.4,0.8-0.8,2-1.5,2.5c-0.7,0.5-1.9,0.4-2.6,0.4
		c-1.1,0.1-2.2,0.1-3.2,0.2c-2.1,0.1-4.3,0.3-6.4,0.5c-4,0.4-8,1-12,1.6c0.3-0.2,0.1-1.5,0.1-1.9c0.1-0.7,0.3-1.3,0.8-1.8
		c0.4-0.5,1-0.8,1.5-1.2c0.5-0.5,1.3-1.1,0.2-1.4c-1.5-0.4-3.3,0.2-4.8-0.3c-0.7-0.2-1-1-1.4-1.5c-0.5-0.6-1-1.3-1.6-1.7
		c-0.4,0.9-0.7,2.1-1.4,2.8c-0.7,0.9-1.9,1.1-2.9,1.6c-0.4,0.2-1.3,0.7-1.3,1.1c-0.1,0.5,0.6,0.5,1,0.7c1,0.3,2.3,0.5,3.2,1.1
		c0.5,0.4,0.5,0.9,0.5,1.5c0,0.5,0,3.5,0.5,3.6c0.7,0.2,1.8-1.8,2.1-2.2C98.3,27.4,99.5,27.5,100.6,28.2
		C99.5,28.6,100,27.8,100.6,28.2 M84.2,72.5c0.8-0.7,1.1-1.8,1.5-2.8c0.3-0.7,0.4-1.9,1.3-2.2c1-0.3,2.6,0.1,3.6,0.2
		c0.6,0,2.4,0.5,1.9-0.6c-0.4-0.9-1.8-1.5-2.5-2.2c-0.6-0.7-0.4-1.6-0.4-2.4c0-0.8,0.2-1.8-0.9-1.8c-1.1,0-2.1,0.9-3,1.2
		c-1.2,0.5-2.3,0.3-3.4-0.2c-0.6-0.3-1.8-1.1-2.4-0.5c-0.4,0.4-0.2,2.1-0.1,2.7c0.1,1.1,0.2,1.6-0.6,2.4c-0.4,0.3-1.9,1.4-1.8,2
		c0.1,0.6,2.2,0.6,2.6,0.6c0.9,0,1.6,0.1,2.2,0.8C82.9,70.7,83.3,71.7,84.2,72.5C84.8,72,83.4,71.8,84.2,72.5 M53.6,67
		c-0.7-1.3-2.6-1.6-3.3-2.9c-0.4-0.7,0-1.8,0-2.6c0-0.5,0.4-2.2,0.1-2.6c-0.5-0.6-2.9,1.9-3.7,2.1c-1.4,0.2-2.5-1.7-3.6-2.3
		c-1.6-0.8-0.8,2-0.9,2.8c0,0.8-0.2,1.6-0.7,2.2c-0.4,0.7-1.3,1.2-1.4,2c-0.2,0.8,0.3,0.8,1,0.7c0.8-0.1,1.6-0.2,2.4-0.2
		c1.1,0,1.2,0.7,1.7,1.7c0.3,0.6,0.7,2.3,1.5,2.1c0.7-0.1,1.4-1.4,1.8-1.9C49.9,66.6,51.9,68.1,53.6,67C53,65.9,52.7,67.6,53.6,67
		 M60.3,67.6c-0.5,0-1.8-0.2-2.1,0.3c-0.4,0.7,1,1.5,1.4,1.9c0.7,0.6,1.6,1.3,1.6,2.3c0,1-0.8,2.2-0.6,3.2c0.4,2.4,3.4-1.9,4.4-2
		c1-0.1,2.1,1.3,3.1,1.7c1,0.4,1-0.4,1-1.3c0-1-0.2-1.7,0.7-2.3c0.6-0.4,2.5-1,2.8-1.7c0.4-1-1.7-0.8-2.2-0.9c-0.9-0.1-2-0.1-2.6-0.8
		c-0.7-0.8-1.1-2.1-1.7-3.1C65.4,64,65,63,64.1,64C63.2,65,62.1,68.2,60.3,67.6C59.6,67.6,61.4,68,60.3,67.6 M97.9,48
		c-0.8,1-0.8,2.6-1.8,3.4c-0.7,0.5-3.1,0.4-3.4,1.3c-0.2,0.8,2,2.1,2.4,2.6c0.4,0.4,0.5,0.8,0.3,1.3c-0.1,0.4-0.8,1.2-0.3,1.5
		c0.4,0.2,1.6-0.7,1.9-0.9c0.7-0.3,1-0.4,1.7-0.1c0.7,0.4,2.5,1.6,2.6,0.2c0.1-1.3-1.4-2.3-0.6-3.5c0.7-1.1,2-1.7,2.6-2.9
		c-1.2-0.5-2.6,0.1-3.6-0.5C98.9,49.9,98.8,48.5,97.9,48C97.2,48.7,98.5,48.4,97.9,48"/>
	<path fill="#003399" d="M207.3,80.2c0.5,0.7,1.7,0.2,2.4,0.1c1.3-0.3,2.6-0.6,3.9-0.8c1.3-0.2,5,0.8,2.9,2.6c-1.7,1.5-4.9,1.3-7,1.6
		c-2.6,0.3-5.2,0.6-7.8,0.8c-10.1,1-20.5,1.1-30.6,0.3c-5.1-0.4-10.3-1.3-15.3-2.3c-4.9-1-9.8-2.1-14.5-3.9
		c-4.3-1.6-8.6-3.3-12.1-6.3c-3.2-2.7-5.8-6.3-7.2-10.3c-3.1-8.9-0.2-18.1,6-24.8c6.4-6.9,15.2-11.5,23.8-15.1
		c9.3-3.9,19-6.6,28.8-8.7c5-1.1,10-1.7,15.1-1.6c1.2,0,2.5,0.1,3.7,0.2c1.1,0.1,2.4,0,3.3,0.8c2.1,1.9-2.9,2.1-3.6,2
		c-1.1,0-2.3,0-3.4-0.1c-0.7,0-2.3-0.4-2.9,0.2c-0.9,0.9,0.8,1.1,1.3,1.2c1.3,0,2.6,0.1,3.9,0c1.5,0,5.3-0.5,5.9,1.4
		c0.8,2.3-3.6,2-4.7,1.9c-0.8,0-6.8-1-6.8,0.3c0,1.5,5.8,1,6.7,1c1.1,0,4.7-0.4,4.9,1.3c0.2,2.4-4.2,1.7-5.5,1.5
		c-1.1-0.2-2.3-0.4-3.4-0.6c-0.6-0.1-1.8,0-1.1,0.9c0.5,0.7,2.1,0.7,2.9,0.8c1.3,0.2,2.5,0.3,3.8,0.5c0.9,0.1,2.1,0.1,2.7,1
		c0.5,0.7,0.3,1.5-0.4,1.9c-1.7,1.1-4.9,0.1-6.8-0.3c-2.4-0.5-4.9-1.3-7.3-1.4c-0.6,0-1.8-0.2-1.9,0.7c-0.1,0.9,1.6,1,2.2,1.1
		c1.3,0.3,5,1.2,3.1,3.2c-1.4,1.5-4.8,0.6-6.5,0.3c-5-0.8-10-2.2-15-2.5c-4.7-0.3-9.7,1.8-13.9,3.6c-4.5,2-8.8,4.4-12.8,7.3
		c-3.2,2.4-6.7,5.8-7.4,9.9c-1.7,9.6,10.7,12.9,17.7,14.4c10.2,2.1,20.6,3,31,2.6c2.4-0.1,5.1,0.1,7.5-0.5c2.1-0.6,4-1.8,6-2.5
		c1.5-0.6,4.3-1.3,4.3,1.2c0,2.5-3.2,2.1-4.5,3.5c-0.8,0.9,0.2,1,0.9,0.8c1.3-0.3,2.5-0.7,3.7-1.1c2.2-0.8,4.4-1.6,6.7-2
		c0.8-0.2,1.9-0.5,2.7,0c0.9,0.6,0.8,1.8,0.3,2.5c-1.2,1.7-3.7,2.3-5.6,2.8c-1.1,0.3-2.3,0.5-3.4,0.8c-0.7,0.2-2.3,0.4-2.8,1
		c-0.6,0.9,0.9,0.8,1.4,0.7c1.1-0.2,2.2-0.7,3.2-1c2.3-0.8,4.5-1.8,6.9-2.2c0.7-0.1,1.8-0.3,2.3,0.3c0.8,1-0.2,2.2-0.9,2.7
		c-1.7,1.3-3.7,1.6-5.7,1.9c-1.2,0.2-2.4,0.5-3.5,0.9c-0.7,0.2-2,1.1-0.5,1.2c2.1,0.1,11.3-5.6,12.2-2.1c0.5,1.9-2.1,3.1-3.6,3.5
		c-1,0.3-2,0.4-3,0.4C209,79.6,208,79.4,207.3,80.2C207.6,80.7,208,79.4,207.3,80.2"/>
	<path fill="#003399" d="M168.8,55.8c-3.3,0.1-6.5-0.2-9.8-0.8c-2.8-0.5-5.7-1.1-8.3-2.5c-2.1-1.1-3.9-2.9-3-5.4
		c0.9-2.5,3.7-3.8,6.1-4.4c2.9-0.7,6-0.9,9-1c3.2-0.1,6.4-0.1,9.5,0.3c2.9,0.3,5.9,0.9,8.6,2.1c2.3,1,5,2.7,4.6,5.6
		c-0.4,3.2-3.4,4.2-6.1,4.9C176,55.5,172.4,55.7,168.8,55.8C165.5,55.9,172.9,55.7,168.8,55.8"/>
	<path fill="#003399" d="M350,120.1c-0.7,0-3-0.4-3.5,0.3c-0.6,0.9,1.2,1.8,1.4,2.6c0.3,0.7,0.3,1.1,0.7,1.7c0.3,0.5,0.7,0.9,1.1,1.4
		c0.5,0.6,1,1.1,1.5,1.7c0.4,0.5,1.2,1.1,1.5,1.7c0.5,1-0.8,1.9-1.6,1.2c-0.5-0.4-0.8-1.4-1.1-1.9c-0.4-0.7-0.8-1.3-1.2-2
		c-0.8-1.2-1.5-2.4-2.2-3.6c-0.6-1-1.2-2.7-2.5-3.1c-0.5-0.2-1.1,0-1.7,0.1c-0.7,0.1-1.4,0-2.1,0.1c-1.3,0.1-1.7,0.9-2.2,2.1
		c-1.2,2.6-2.4,5.2-3.2,8c-0.2,0.9-0.5,1.7-1.5,2c-2,0.6-0.8-1.3-0.4-2.1c1.3-2.6,2.1-5.4,3.3-8c0.2-0.4,0.4-0.7,0.3-1.1
		c-0.2-0.4-0.9-0.5-0.5-1.1c0.2-0.3,0.9-0.5,1.2-0.7c0.5-0.4,0.9-0.9,1.3-1.4c0.6-0.9,0.9-2,1.4-2.9c0.2-0.4,0.5-0.7,0.7-1.1
		c0.2-0.4,0.2-1,0.4-1.4c0.3-0.4,1.5-0.9,1.9-0.8c0.5,0.1,0.4,0.2,0.5,0.6c0,0.3-0.1,0.6-0.1,0.9c0.1,0.4,0.3,0.7,0.5,1
		c0.3,0.6,0.5,1.1,0.8,1.7c0.2,0.4,0.8,1,0.8,1.4c0.1,0.5-0.1,0.7,0.1,1.1c0.2,0.6,1,0.6,1.4,0.5c1.5-0.1,2.9-0.1,4.4-0.1
		c1.2,0,2.3,0,3.2-0.9c0.8-0.9,1.4-2,2.2-2.8c0.8-0.8,1.7-1.6,2.7-2.2c2-1.3,4.3-2.1,6.7-2.6c1.4-0.3,2.9-0.5,4.4-0.5
		c0.5,0,3.9,0.4,2.6,1.7c-0.7,0.6-2.5-0.5-3.2-0.6c-1.5-0.3-2.9,0.2-4.3,0.7c-2.5,0.9-4.8,2-6.5,4.1c-0.4,0.6-2,2.2-0.8,2.8
		c0.4,0.2,1.2,0,1.7,0.1c0.7,0.1,1.4,0.4,2.2,0.5c1.3,0.3,2.5-0.1,3.7,0.1c0.4,0.1,0.9,0.1,0.7,0.7c-0.2,0.7-1.2,0.5-1.7,0.4
		c-1.5-0.1-2.8-0.1-4.3-0.1c-1.2,0.1-3-0.3-4.1,0.3c-1.8,1.1-1.2,4.5-0.4,6c2.4,4.4,8.4,6,13,6.5c1,0.1,2.4,0.5,3.5,0.4
		c1.1-0.1,1.2-1.5,1.5-2.4c0.4-1.4,0.8-2.9,1.2-4.3c0.4-1.4,1-3,1.1-4.4c0-0.7-0.1-1,0.2-1.6c0.3-0.5,0.6-0.7,0.8-1.3
		c0.5-1.4,1.1-2.8,1.7-4.3c0.7-1.7,1.2-4.7,3.8-4.2c1.1,0.2,1.3,1.5,1.7,2.4c0.7,1.3,1.6,2.4,2.5,3.5c1.7,2.2,3.6,4,5.6,6
		c2,2,4,4.2,5.6,6.6c0.4,0.5,0.7,1.1,1.1,1.6c0.3,0.4,1,0.9,1,1.5c0.1,1.2-2,0.8-2.6,0.4c-0.9-0.6-1.3-1.8-1.9-2.7
		c-0.7-1.2-1.7-2.2-2.6-3.3c-0.9-1-1.8-1.9-2.8-2.7c-0.9-0.8-2.1-2.3-3.4-2.5c-1.4-0.2-3,0.1-4.3,0.1c-1.4,0-2.5-0.4-3.2,1
		c-1.3,2.7-1.7,5.5-2.5,8.4c-0.1,0.5-0.1,1.2-0.4,1.6c-0.3,0.6-0.9,0.7-1.6,0.9c-1.4,0.4-2.9,0.6-4.4,0.6c-2.9,0-5.9-0.2-8.7-1
		c-4.3-1.2-10.3-4.2-9.5-9.7c0.1-0.8,1.1-2.8,0.6-3.4C352.7,119.9,350,120.2,350,120.1C349.1,120.1,350,120.1,350,120.1 M384.4,120.8
		c0.4,0,1.2,0.1,1.4-0.4c0.1-0.5-0.8-1.2-1-1.5c-0.4-0.5-2.1-3-2.8-2.7c-0.5,0.2-1.7,3.4-1.5,3.8C380.8,121,383.6,120.6,384.4,120.8
		C385,120.8,383.4,120.5,384.4,120.8 M342,119.3c0.5-0.2,1.1,0.3,1.5-0.1c0.5-0.4,0.1-1.1-0.2-1.5c-0.5-0.8-1.3-2.5-2.2-1
		c-0.2,0.3-1.2,2-1,2.3C340.2,119.4,341.6,119.3,342,119.3"/>
	<path fill="#003399" d="M152.2,111.9c-0.7-0.8-2-0.6-2.9-0.6c-1.2,0-2.5,0-3.7,0c-1.2,0-2.5,0.1-3.7,0.2c-1,0.1-2.2,0.7-3.2,0.4
		c4.6-1.6,9.3-2.1,14.1-1.5c4.7,0.6,9.2,1.7,13.3,4c3.6,2,7.1,4.3,8.5,8.4c1.3,4-1.3,7.2-4.5,9.3c-3.7,2.4-8.2,3.4-12.6,3.2
		c-4.8-0.1-9.9-0.6-14.6-1.7c-2.2-0.5-4.4-1.2-6.5-2.1c-1.7-0.7-4-1.6-5.1-3.2c-0.3-0.4-0.7-1.7-1.1-0.7c-0.1,0.4,0.1,1.2,0.1,1.6
		c0,0.7,0.1,1.4,0.3,2.1c0.2,0.6,0.6,1.3,0.4,1.9c-0.3,0.6-1.3,0.6-1.9,0.7c-0.3,0-1.4,0.4-1.7,0.1c-0.4-0.4-0.2-1.9-0.2-2.4
		c-0.2-2.6-0.5-5.1-0.8-7.7c-0.1-1.1-0.2-2.3-0.2-3.4c0-0.6-0.1-1.3-0.5-1.8c-1-1-3.6-0.4-4.8-0.2c-1.2,0.2-2.4,0.4-3.6,0.6
		c-0.8,0.1-1.9,0-2.2,0.9c-0.4,0.8,0,2.2,0,3c0.1,1.2,0.2,2.4,0.3,3.7c0.1,1.2,0.3,2.3,0.7,3.4c0.2,0.5,1,2.5-0.3,2.2
		c-0.8-0.2-0.7-1.4-0.8-2c-0.2-1.3-0.3-2.6-0.5-4c-0.1-1.2-0.2-2.3-0.3-3.5c-0.1-0.7,0.1-2.4-0.4-3c-0.2-0.3-0.9-0.4-1-0.7
		c-0.1-0.4,0.4-0.5,0.6-0.8c0.6-0.8,0.2-1.7,0.1-2.6c-0.2-1.2-0.3-2.4-0.5-3.6c-0.1-0.5-0.8-2.7-0.4-3.1c0.9-1,1.4,4.4,1.5,4.8
		c0.1,1,0,2.3,0.3,3.2c0.3,1,1.6,0.7,2.4,0.7c2.4-0.1,4.7-0.8,7.1-1c0.7-0.1,1.5,0.1,2-0.6c0.5-0.7,0.2-2,0.2-2.8c0-1.2,0-2.5,0-3.7
		c0-1.1-0.3-2.8,0-3.9c0.2-0.8,2.3-2,3-1.1c0.3,0.4,0.1,1.7,0.1,2.2c-0.1,1.3-0.1,2.6,0,3.9c0,2.5,0.2,4.9,0.2,7.4
		c0,2.5,0.3,4.8,0.5,7.3c0,0.4,0,1.6,0.7,1c0.2-0.2,0.2-0.9,0.3-1.1c0.1-0.5,0.3-1,0.5-1.4c0.8-1.7,2.2-3,3.6-4.1
		c3.3-2.5,6.9-5.1,10.9-6.3c1.1-0.3,2.1-0.6,3.2-0.8C149.8,112.6,151.6,112.6,152.2,111.9C151.8,111.5,151.9,112.2,152.2,111.9
		 M158.2,133.9c3,0,5.8-0.2,8.4-1.7c2.3-1.3,4.8-3.4,5.3-6.1c0.6-3.1-1.3-5.8-3.4-7.9c-1-1-2.2-2-3.4-2.7c-1.4-0.8-3-1.8-4.6-2.2
		c-0.7-0.2-1.4-0.1-2.1,0.1c-0.7,0.2-1.1,0.2-1.9,0.1c-1.7-0.2-3.4-0.1-5,0.1c-3.4,0.4-6.4,1.7-9.3,3.4c-2.7,1.6-5.3,3.1-7.3,5.6
		c-0.8,1-1.7,2.2-1.5,3.6c0.2,1.3,1.4,2.1,2.4,2.7c3.1,1.9,6.8,2.8,10.3,3.7C150.2,133.4,154.2,133.9,158.2,133.9
		C158.8,133.9,153,133.9,158.2,133.9"/>
	<path fill="#003399" d="M273.1,131.4c0-4-0.7-8-1.1-12c-0.1-0.9-0.2-1.9-0.4-2.8c-0.2-0.8-0.3-1.4,0.2-2.1c1-1.2,3.1-1.6,4.6-1.7
		c3.7-0.3,7.2,0.7,10.2,2.7c1.2,0.8,2.9,2,3.1,3.5c0.3,1.8-1.9,2.2-3.2,2.3c-2,0.1-4-0.2-6-0.3c-0.5,0-1.6-0.3-1.2,0.5
		c0.3,0.6,1.7,1.4,2.2,1.8c3.1,2.5,6.3,5,10,6.7c0.6,0.3,4.1,1,2.8,2.1c-1.1,1-3.8-0.6-4.8-1.1c-1.7-0.9-3.6-1.6-5.2-2.7
		c-1.6-1-3-2.3-4.4-3.5c-0.6-0.5-3.5-3.1-4.2-2.1c-0.4,0.6,0,2.3,0,2.9c0,1.2,0.1,2.4,0.2,3.5c0.1,1.1,0.7,3.9-0.6,4.4
		c-0.4,0.2-1.5,0.3-1.9,0C272.8,133.1,273.1,132.1,273.1,131.4C273.1,128,273.1,131.8,273.1,131.4 M285.3,120.3
		c2.8-0.2-0.1-3.1-1.2-3.8c-2.4-1.5-5.6-2.1-8.4-2c-1.4,0-1.1,1-0.8,2.1c0.3,1.2,0.2,2.4,1.5,2.7
		C279.3,119.7,282.4,120.2,285.3,120.3C286.7,120.2,283.4,120.2,285.3,120.3"/>
	<path fill="#003399" d="M101.2,132.9c-5.2,0-10.4-0.1-15.5-1.2c-4-0.8-9.7-2.2-11.8-6c-2.3-4.1,3.2-8.3,6.1-10.2
		c4.3-2.9,9-4.1,14-5.4c2.5-0.7,5.1-1.2,7.7-1.5c1.1-0.1,2.4-0.3,3.5,0c0.4,0.1,0.9,0.3,0.8,0.8c-0.1,0.6-0.9,0.4-1.4,0.5
		c-1.2,0.1-2.2,0.4-3.4,0.3c-1.3,0-2.6,0.1-3.9,0.2c-2.5,0.4-4.9,1.1-7.2,1.9c-4.5,1.5-8.5,3.3-11.9,6.6c-1.5,1.4-2.9,3.5-1.7,5.5
		c1.1,1.8,3.1,3.2,5,4.2c4.7,2.4,10.6,3,15.8,3.3c3,0.2,6-0.2,9,0.1c0.3,0,1,0,1,0.4c0,0.2-1.2,0.3-1.4,0.3
		C104.2,133,102.7,132.9,101.2,132.9C99,132.9,102.9,132.8,101.2,132.9"/>
	<path fill="#003399" d="M259.4,131.4c-6,0.6-11-6.9-10.4-12.4c0.1-1.3,0.5-2.9,1.8-3.6c0.4-0.2,1.4-0.7,1.9-0.5
		c0.8,0.4-0.1,1-0.4,1.5c-1.4,2.6-0.7,6.5,0.9,9c1.5,2.4,3.5,5.4,6.7,5.2c2.5-0.2,5-1.8,5.7-4.2c0.8-2.7,0-5.7-1.1-8.2
		c-0.3-0.8-0.7-1.6-1.1-2.4c-0.2-0.4-0.8-1.2-0.7-1.7c0.1-0.7,1.1-0.6,1.5-0.4c0.7,0.3,1,1.3,1.4,1.9c0.9,1.7,1.5,3.6,2.2,5.5
		c0.3,1,0.2,1.8,0.3,2.8c0.1,0.8,0.4,1.5,0.2,2.3C267.3,129.4,262.6,131.7,259.4,131.4C256.1,131.7,262,131.6,259.4,131.4"/>
	<path fill="#003399" d="M297.7,115.5c3.4-2.1,8.9-0.1,11.3,2.6c0.6,0.7,1,1.4,1.6,2.1c0.5,0.6,0.9,1.7,1.7,1.9c0.2,0,1.9-0.1,1,0.6
		c-0.2,0.1-0.6-0.1-0.8,0c-0.3,0.2-0.4,0.3-0.4,0.7c-0.3,1.7,0.5,3.3-0.3,5c-0.7,1.5-2.1,2.4-3.6,2.9c-4,1.5-8.4,0.8-11.9-1.5
		c-1.7-1.1-2.2-3.3-2.3-5.3c-0.1-1.8,1-3.8,1.9-5.4c0.9-1.5,2.7-2.4,4.4-2.6c0.5-0.1,1.7-0.2,1.2,0.5c-0.1,0.2-0.8,0.4-1,0.5
		c-0.4,0.3-0.8,0.5-1.1,0.9c-2.4,2.1-3.5,6.2-1.8,9.1c1.7,2.9,7.1,4.9,9.9,2.6c1.6-1.3,2.7-2.5,2.6-4.7c0-2.2-0.4-4.2-1.5-6.1
		C306,115.4,302,115.5,297.7,115.5C299.3,114.5,299.1,115.5,297.7,115.5"/>
	<path fill="#facc00" d="M100.6,28.2c-0.9-0.6-2.2-0.8-3,0c-0.3,0.4-1.6,2.6-2.2,2.4c-0.6-0.1-0.5-2.9-0.5-3.5c0-0.7,0-1.2-0.5-1.6
		c-0.8-0.5-2.1-0.7-3-1c-0.2-0.1-1.3-0.3-1.3-0.6c0-0.4,1-1,1.2-1.1c0.9-0.6,2.1-0.8,2.9-1.6c0.7-0.8,1.1-2,1.5-3
		c0.7,0.5,1.2,1.1,1.6,1.7c0.4,0.6,0.7,1.3,1.4,1.5c0.7,0.2,1.7,0.1,2.5,0.1c0.7,0,1.9-0.1,2.5,0.2c0.5,0.2,0.4,0.1,0.3,0.6
		c-0.1,0.3-0.5,0.6-0.7,0.8c-0.5,0.5-1.2,0.8-1.7,1.4c-0.5,0.6-0.7,1.3-0.7,2C100.9,27.1,101.1,28,100.6,28.2
		C100,27.8,100.7,28.1,100.6,28.2"/>
	<path fill="#003399" d="M321.2,112.6c2.6,0,5,0.4,7.5,1.2c2.1,0.6,4.5,1.6,5.9,3.4c3.9,5.2-7.3,5.5-10,5.6c-1.4,0-2.8,0-4.2,0
		c-1.1,0-3.1-0.4-4.1,0.2c-0.8,0.5-0.3,1.5-0.2,2.2c0.3,1.5,0.5,3,0.9,4.4c0.1,0.5,1,2.6-0.1,2.7c-1.1,0.1-0.7-2.5-0.8-3
		c-0.1-1.2-0.3-2.4-0.5-3.5c-0.1-0.6-0.2-1.1-0.5-1.7c-0.2-0.5-0.8-1.1-0.8-1.6c0-0.8,0.3-1.6,0.2-2.4c-0.1-0.8-0.2-1.5-0.4-2.3
		c-0.1-0.7-0.2-1.2-0.6-1.8c-0.4-0.5-0.8-0.7-0.5-1.3c0.5-1.1,2.4-1.3,3.5-1.5C318,112.8,319.6,112.6,321.2,112.6
		C324,112.6,319.9,112.6,321.2,112.6 M322.1,113.4c-1.1-0.2-2.2,0.1-3.2,0.3c-1,0.1-2.1,0.3-3,0.7c-1.8,0.8-0.7,3.5-0.5,5.1
		c0.1,0.7,0,2.1,0.7,2.5c0.6,0.4,2.2-0.1,3-0.1c2.4-0.1,4.9,0,7.3-0.1c2-0.1,10.6-0.8,7.3-4.5C330.9,114.3,325.8,113.6,322.1,113.4
		C321.3,113.3,324.3,113.5,322.1,113.4"/>
	<path fill="#facc00" d="M300.6,122.2c-0.1-1.8,0.8-3.2,2.8-3.3c2.2-0.1,3.6,2.7,3.7,4.6c0.1,1.6-1.2,4.4-3.2,3.8
		C301.7,126.8,300.7,124.1,300.6,122.2C300.5,120.2,300.6,123.7,300.6,122.2"/>
	<path fill="#facc00" d="M93.7,12.1c0.1,0.8,0.1,1.9,0,2.8c0,0.7-0.2,0.8-0.9,0.7c-0.8-0.1-1.2-0.5-2-0.1c-0.6,0.3-1.1,1.3-1.9,1.2
		c-0.6-0.1-1.3-1.1-1.5-1.6c-0.2-0.6-0.4-0.4,0.1-0.9c0.3-0.2,0.7-0.3,1-0.5C90.2,13.2,92,12.6,93.7,12.1
		C93.8,13,92.5,12.4,93.7,12.1"/>
	<path fill="#facc00" d="M84.2,72.5c-0.8-0.8-1.3-1.9-1.9-2.8C81.7,69,80.9,69,80,68.9c-0.5,0-2.5,0-2.6-0.6c-0.1-0.6,1.4-1.6,1.8-2
		c0.8-0.8,0.8-1.3,0.6-2.4c-0.1-0.6-0.3-2.2,0.1-2.7c0.6-0.6,1.8,0.2,2.4,0.5c1.2,0.5,2.2,0.7,3.4,0.2c1-0.4,2-1.2,3-1.2
		c1,0,0.9,1,0.9,1.8c0,0.8-0.2,1.7,0.4,2.4c0.6,0.7,2.1,1.3,2.5,2.2c0.5,1.2-1.3,0.7-1.9,0.6c-1-0.1-2.6-0.5-3.6-0.2
		c-0.8,0.2-1,1.5-1.3,2.2C85.3,70.8,85,71.8,84.2,72.5C83.4,71.8,84.8,72,84.2,72.5"/>
	<path fill="#facc00" d="M53.6,67c-1.4,0.9-3.3-0.3-4.7,0.7c-0.8,0.6-2.1,3.4-3,1.8c-0.5-0.8-0.8-2.8-1.8-3.2c-0.4-0.1-1,0-1.4,0
		c-0.5,0-2.1,0.5-2.5,0.1c-0.8-0.7,1.5-2.8,1.8-3.5c0.3-0.8,0.3-1.6,0.2-2.4c0-0.5-0.4-1.5,0-1.9c0.8-0.8,2.9,1.8,3.6,2.1
		c1.6,0.9,2.8-1.3,3.9-1.9c1-0.5,0.8,0.5,0.7,1.2c-0.1,1.1-0.3,2.4-0.2,3.5C50.3,65.2,52.8,65.6,53.6,67C52.7,67.6,53,65.9,53.6,67"
		/>
	<path fill="#facc00" d="M60.3,67.6c1.8,0.7,2.9-2.6,3.8-3.6c0.9-1,1.3,0,1.7,0.9c0.6,1,1,2.2,1.7,3.1c0.7,0.8,1.7,0.7,2.6,0.8
		c0.5,0.1,2.6-0.1,2.2,0.9c-0.3,0.7-2.2,1.3-2.8,1.7C68.7,72,69,72.6,69,73.7c0,0.9,0.1,1.7-1,1.3c-0.9-0.3-2-1.7-3.1-1.7
		c-0.9,0.1-3.9,4.3-4.4,2c-0.2-1,0.6-2.2,0.6-3.2c0-1-0.9-1.7-1.6-2.3c-0.4-0.4-1.8-1.2-1.4-1.9C58.5,67.4,59.9,67.6,60.3,67.6
		C61.4,68,59.6,67.6,60.3,67.6"/>
	<path fill="#facc00" d="M97.9,48c1,0.6,1,1.9,1.9,2.5c1,0.6,2.5,0,3.6,0.5c-0.6,1.1-1.8,1.7-2.6,2.8c-0.9,1.2,0.3,2.3,0.5,3.5
		c0.2,1.5-1.7,0.4-2.4,0c-0.7-0.4-1-0.5-1.7-0.2c-0.4,0.2-1.7,1.2-2.2,1c-0.5-0.2,0.1-1.1,0.2-1.4c0.2-0.6,0.3-0.8-0.1-1.4
		c-0.5-0.6-2.6-1.8-2.5-2.7c0.1-0.9,2.6-0.9,3.2-1.3C97,50.7,97,48.9,97.9,48C98.5,48.4,97.2,48.7,97.9,48"/>
	<path fill="#facc00" d="M152.4,127.2c-3.1-0.5-7.6-2.7-7.3-6.4c0.3-4.2,5.7-4.7,8.9-4c3.2,0.7,6.5,2.8,6.6,6.4
		C160.6,127.3,155.2,127.4,152.4,127.2C150.7,127,155.3,127.4,152.4,127.2"/>
</svg>